<?xml version="1.0" encoding="UTF-8"?>
<svg width="292px" height="59px" viewBox="0 0 292 59" version="1.1" xmlns="http://www.w3.org/2000/svg" xmlns:xlink="http://www.w3.org/1999/xlink">
    <!-- Generator: Sketch 53 (72520) - https://sketchapp.com -->
    <title>white</title>
    <desc>Created with Sketch.</desc>
    <g id="white" stroke="none" stroke-width="1" fill="none" fill-rule="evenodd">
        <g id="Rectangle" fill="#FFFFFF">
            <g id="Mask">
                <path d="M0,5 L93,0 L93,34 L0,39 L0,5 Z M18.6285434,16.1552734 L18.6285434,8.5 L15.0992465,8.5 L15.0992465,28 L18.6285434,28 L18.6285434,18.0849609 C18.9078417,17.7040997 19.2654227,17.4078787 19.7012973,17.1962891 C20.1371719,16.9846995 20.6513269,16.8789063 21.2437778,16.8789063 C21.6500298,16.8789063 22.0139585,16.9318029 22.3355747,17.0375977 C22.6571909,17.1433925 22.9322532,17.306314 23.16077,17.5263672 C23.3892867,17.7464204 23.5649035,18.0341779 23.6876254,18.3896484 C23.8103474,18.745119 23.8717075,19.1682918 23.8717075,19.6591797 L23.8717075,28 L27.4010043,28 L27.4010043,19.6845703 C27.4010043,18.6774038 27.2804001,17.8162471 27.0391879,17.1010742 C26.7979758,16.3859014 26.4615534,15.799807 26.0299106,15.3427734 C25.5982678,14.8857399 25.0819969,14.5493175 24.4810825,14.3334961 C23.880168,14.1176747 23.2200184,14.0097656 22.5006137,14.0097656 C21.6881097,14.0097656 20.9539048,14.2001934 20.297977,14.5810547 C19.6420492,14.961916 19.0855769,15.4866503 18.6285434,16.1552734 Z M40.026674,28 L43.6067522,28 L43.6067522,27.7841797 C43.4290169,27.4371727 43.2936016,27.0224633 43.2005022,26.5400391 C43.1074028,26.0576148 43.0608537,25.4482459 43.0608537,24.7119141 L43.0608537,18.8212891 C43.0608537,18.0257122 42.9127432,17.3253611 42.6165178,16.7202148 C42.3202924,16.1150686 41.9098147,15.6136088 41.3850725,15.2158203 C40.8603303,14.8180319 40.2403821,14.5175791 39.5252092,14.3144531 C38.8100364,14.1113271 38.0377459,14.0097656 37.2083147,14.0097656 C36.285784,14.0097656 35.4669446,14.1261382 34.7517717,14.3588867 C34.0365989,14.5916353 33.4314617,14.9068991 32.936342,15.3046875 C32.4412224,15.7024759 32.0645985,16.1637344 31.8064592,16.6884766 C31.5483199,17.2132188 31.4192522,17.7675752 31.4192522,18.3515625 L34.948549,18.3515625 C34.948549,17.8352839 35.1135865,17.4226903 35.4436662,17.1137695 C35.773746,16.8048487 36.2984803,16.6503906 37.017885,16.6503906 C37.830389,16.6503906 38.4524531,16.8429343 38.8840959,17.2280273 C39.3157387,17.6131204 39.5315569,18.1357389 39.5315569,18.7958984 L39.5315569,19.6083984 L37.5637834,19.6083984 C35.4224967,19.6083984 33.812324,20.0040651 32.733217,20.7954102 C31.6541101,21.5867553 31.1145647,22.7060475 31.1145647,24.1533203 C31.1145647,24.7457712 31.2330531,25.29378 31.4700334,25.7973633 C31.7070138,26.3009465 32.0370886,26.7346987 32.4602678,27.0986328 C32.883447,27.4625669 33.3891386,27.7460927 33.9773576,27.9492188 C34.5655767,28.1523448 35.2109153,28.2539063 35.9133928,28.2539063 C36.3450356,28.2539063 36.7470498,28.2137048 37.1194475,28.1333008 C37.4918452,28.0528967 37.8324993,27.9428718 38.1414201,27.8032227 C38.450341,27.6635735 38.7317509,27.500652 38.9856584,27.3144531 C39.2395659,27.1282543 39.4638476,26.929363 39.65851,26.7177734 C39.7008279,26.9632174 39.7516086,27.1959624 39.8108537,27.4160156 C39.8700988,27.6360688 39.9420382,27.8307283 40.026674,28 Z M36.6624162,25.5244141 C35.9853295,25.5244141 35.479638,25.3678401 35.1453264,25.0546875 C34.8110148,24.7415349 34.6438615,24.3479841 34.6438615,23.8740234 C34.6438615,23.5608708 34.7031057,23.2709974 34.8215959,23.0043945 C34.9400861,22.7377916 35.1220504,22.5092783 35.3674944,22.3188477 C35.6129383,22.128417 35.9303179,21.9803065 36.3196428,21.8745117 C36.7089677,21.7687169 37.1786895,21.7158203 37.7288225,21.7158203 L39.5315569,21.7158203 L39.5315569,24.0771484 C39.4299939,24.2548837 39.2903468,24.4305004 39.1126115,24.6040039 C38.9348763,24.7775074 38.7232899,24.9319655 38.4778459,25.0673828 C38.232402,25.2028002 37.9573396,25.3128251 37.6526506,25.3974609 C37.3479616,25.4820968 37.0178868,25.5244141 36.6624162,25.5244141 Z M53.8710937,25.4355469 C53.3040336,25.4355469 52.8364276,25.3212902 52.4682617,25.0927734 C52.1000958,24.8642567 51.8081065,24.5616881 51.5922852,24.1850586 C51.3764638,23.8084291 51.2262374,23.3725611 51.1416016,22.8774414 C51.0569657,22.3823217 51.0146484,21.8681667 51.0146484,21.3349609 L51.0146484,20.9541016 C51.0146484,20.4293594 51.0590816,19.9215519 51.1479492,19.4306641 C51.2368169,18.9397762 51.3891591,18.5039082 51.6049805,18.1230469 C51.8208019,17.7421856 52.1106753,17.4375011 52.4746094,17.2089844 C52.8385435,16.9804676 53.2998019,16.8662109 53.8583984,16.8662109 C54.2392597,16.8662109 54.5904932,16.9318027 54.9121094,17.0629883 C55.2337256,17.1941738 55.5087879,17.3697906 55.7373047,17.5898438 C55.9658215,17.8098969 56.1393223,18.0722641 56.2578125,18.3769531 C56.3763027,18.6816421 56.4270834,19.0032535 56.4101562,19.3417969 L59.7363281,19.3417969 C59.7532553,18.5292928 59.61784,17.7950879 59.3300781,17.1391602 C59.0423163,16.4832324 58.6381862,15.9246442 58.1176758,15.4633789 C57.5971654,15.0021136 56.9772171,14.6445325 56.2578125,14.390625 C55.5384079,14.1367175 54.7555381,14.0097656 53.9091797,14.0097656 C52.8512317,14.0097656 51.9223673,14.19173 51.1225586,14.5556641 C50.3227499,14.9195982 49.6520209,15.4147104 49.1103516,16.0410156 C48.5686822,16.6673208 48.1624362,17.4015257 47.8916016,18.2436523 C47.6207669,19.085779 47.4853516,19.989253 47.4853516,20.9541016 L47.4853516,21.3349609 C47.4853516,22.2998095 47.6228827,23.2032835 47.8979492,24.0454102 C48.1730157,24.8875368 48.5792616,25.6217417 49.1166992,26.2480469 C49.6541368,26.8743521 50.3248658,27.3673485 51.1289062,27.7270508 C51.9329467,28.0867531 52.8681587,28.2666016 53.9345703,28.2666016 C54.7216836,28.2666016 55.4685837,28.1417656 56.175293,27.8920898 C56.8820022,27.6424141 57.5019505,27.2975282 58.0351562,26.8574219 C58.568362,26.4173155 58.989419,25.8925812 59.2983398,25.2832031 C59.6072607,24.6738251 59.7532553,24.0136754 59.7363281,23.3027344 L56.4101562,23.3027344 C56.4270834,23.6243506 56.3699551,23.9163398 56.2387695,24.1787109 C56.107584,24.441082 55.9235038,24.6653637 55.6865234,24.8515625 C55.4495431,25.0377613 55.1744807,25.1816401 54.8613281,25.2832031 C54.5481755,25.3847661 54.2181007,25.4355469 53.8710937,25.4355469 Z M69.3024275,22.3251953 L73.1998884,28 L77.52899,28 L71.6256697,19.9892578 L76.8053572,14.2636719 L72.5651228,14.2636719 L68.7692244,18.4277344 L67.7028181,19.6464844 L67.7028181,8.5 L64.1735213,8.5 L64.1735213,28 L67.7028181,28 L67.7028181,23.8105469 L69.3024275,22.3251953 Z" id="Combined-Shape-Copy-2"></path>
                <path d="M199,25 L292,20 L292,54 L199,59 L199,25 Z M207.493931,45.9560547 C207.493931,46.2776709 207.548944,46.5781236 207.65897,46.8574219 C207.768997,47.1367201 207.929803,47.3800445 208.141392,47.5874023 C208.352982,47.7947602 208.611117,47.9576817 208.915806,48.0761719 C209.220495,48.1946621 209.563265,48.2539063 209.944127,48.2539063 C210.324988,48.2539063 210.667758,48.1946621 210.972447,48.0761719 C211.277136,47.9576817 211.533155,47.7947602 211.740513,47.5874023 C211.947871,47.3800445 212.108677,47.1367201 212.222935,46.8574219 C212.337194,46.5781236 212.394322,46.2776709 212.394322,45.9560547 C212.394322,45.6259749 212.337194,45.3191746 212.222935,45.0356445 C212.108677,44.7521145 211.947871,44.5066742 211.740513,44.2993164 C211.533155,44.0919586 211.277136,43.9269212 210.972447,43.8041992 C210.667758,43.6814773 210.324988,43.6201172 209.944127,43.6201172 C209.563265,43.6201172 209.220495,43.6814773 208.915806,43.8041992 C208.611117,43.9269212 208.352982,44.0919586 208.141392,44.2993164 C207.929803,44.5066742 207.768997,44.7521145 207.65897,45.0356445 C207.548944,45.3191746 207.493931,45.6259749 207.493931,45.9560547 Z M232.611788,41.2587891 L232.611788,40.9921875 C232.611788,39.9511667 232.495416,39.0011436 232.262667,38.1420898 C232.029919,37.2830361 231.685033,36.5467153 231.227999,35.9331055 C230.770966,35.3194956 230.208146,34.845542 229.539523,34.5112305 C228.8709,34.1769189 228.100725,34.0097656 227.228976,34.0097656 C226.45879,34.0097656 225.785945,34.1494127 225.210421,34.4287109 C224.634898,34.7080092 224.135554,35.10156 223.712374,35.609375 L223.585421,34.2636719 L220.322726,34.2636719 L220.322726,53.28125 L223.852023,53.28125 L223.852023,46.8066406 C224.266738,47.2636742 224.753387,47.6191394 225.311984,47.8730469 C225.87058,48.1269544 226.518035,48.2539063 227.254367,48.2539063 C228.117652,48.2539063 228.883595,48.0761737 229.552218,47.7207031 C230.220841,47.3652326 230.781545,46.876468 231.234347,46.2543945 C231.687149,45.6323211 232.029919,44.8938845 232.262667,44.0390625 C232.495416,43.1842405 232.611788,42.257492 232.611788,41.2587891 Z M229.082492,40.9921875 L229.082492,41.2587891 C229.082492,41.8258492 229.031711,42.3611628 228.930148,42.8647461 C228.828585,43.3683293 228.667779,43.810545 228.447726,44.1914063 C228.227673,44.5722675 227.942031,44.8727203 227.590792,45.0927734 C227.239554,45.3128266 226.814265,45.4228516 226.314913,45.4228516 C225.680145,45.4228516 225.16599,45.2937838 224.772433,45.0356445 C224.378876,44.7775052 224.072076,44.4326193 223.852023,44.0009766 L223.852023,38.2626953 C224.072076,37.8225889 224.378876,37.4819348 224.772433,37.2407227 C225.16599,36.9995105 225.671681,36.8789063 226.289523,36.8789063 C226.788874,36.8789063 227.214163,36.9846995 227.565402,37.1962891 C227.91664,37.4078787 228.204398,37.6977521 228.428683,38.065918 C228.652968,38.4340839 228.818005,38.8699519 228.9238,39.3735352 C229.029595,39.8771184 229.082492,40.4166638 229.082492,40.9921875 Z M245.377107,46.0703125 L245.580232,48 L248.77945,48 L248.77945,34.2636719 L245.237458,34.2636719 L245.237458,43.8994141 C245.008941,44.3649112 244.674635,44.7309557 244.234528,44.9975586 C243.794422,45.2641615 243.223139,45.3974609 242.520661,45.3974609 C242.105946,45.3974609 241.754712,45.3466802 241.46695,45.2451172 C241.179188,45.1435542 240.946443,44.9764009 240.768708,44.7436523 C240.590973,44.5109038 240.461905,44.2041035 240.381501,43.8232422 C240.301097,43.4423809 240.260896,42.972659 240.260896,42.4140625 L240.260896,34.2636719 L236.731599,34.2636719 L236.731599,42.3886719 C236.731599,43.4296927 236.847971,44.3204716 237.08072,45.0610352 C237.313468,45.8015988 237.641427,46.4109677 238.064607,46.8891602 C238.487786,47.3673527 238.995593,47.7164703 239.588044,47.9365234 C240.180495,48.1565766 240.832181,48.2666016 241.543122,48.2666016 C242.321772,48.2666016 243.03905,48.0719421 243.694978,47.6826172 C244.350905,47.2932923 244.911609,46.7558628 245.377107,46.0703125 Z M261.824065,44.2294922 C261.824065,44.6695986 261.595552,45.0292955 261.138518,45.3085938 C260.681485,45.587892 260.017104,45.7275391 259.145354,45.7275391 C258.764493,45.7275391 258.394217,45.6894535 258.034515,45.6132813 C257.674812,45.537109 257.355317,45.4165047 257.076018,45.2514648 C256.79672,45.086425 256.568207,44.8706068 256.390472,44.6040039 C256.212736,44.337401 256.111175,44.0179055 256.085784,43.6455078 L252.721526,43.6455078 C252.721526,44.2041044 252.859057,44.7605767 253.134124,45.3149414 C253.40919,45.8693062 253.81332,46.3644184 254.346526,46.800293 C254.879732,47.2361675 255.541998,47.5895169 256.333343,47.8603516 C257.124688,48.1311863 258.036625,48.2666016 259.069183,48.2666016 C260.00864,48.2666016 260.859218,48.1629242 261.62094,47.9555664 C262.382663,47.7482086 263.032233,47.4583352 263.569671,47.0859375 C264.107108,46.7135398 264.521818,46.2713242 264.813811,45.7592773 C265.105805,45.2472305 265.2518,44.6865265 265.2518,44.0771484 C265.2518,43.4169889 265.105805,42.8478214 264.813811,42.3696289 C264.521818,41.8914364 264.117688,41.4851905 263.601409,41.1508789 C263.08513,40.8165673 262.47153,40.5436208 261.760589,40.3320313 C261.049648,40.1204417 260.279473,39.9469408 259.450042,39.8115234 C258.874518,39.7268876 258.400565,39.627442 258.028167,39.5131836 C257.655769,39.3989252 257.361664,39.2719734 257.145843,39.1323242 C256.930021,38.9926751 256.779795,38.8361011 256.695159,38.6625977 C256.610523,38.4890942 256.568206,38.3007823 256.568206,38.0976563 C256.568206,37.6660135 256.777677,37.3020848 257.196624,37.0058594 C257.615571,36.7096339 258.23552,36.5615234 259.056487,36.5615234 C259.9367,36.5615234 260.592618,36.7413719 261.024261,37.1010742 C261.455903,37.4607765 261.671722,37.9072239 261.671722,38.4404297 L265.201018,38.4404297 C265.201018,37.8056609 265.061371,37.2174506 264.782073,36.6757813 C264.502775,36.1341119 264.098645,35.6665059 263.569671,35.2729492 C263.040697,34.8793926 262.395358,34.5704764 261.633636,34.3461914 C260.871913,34.1219064 260.012872,34.0097656 259.056487,34.0097656 C258.14242,34.0097656 257.321465,34.1240223 256.593597,34.3525391 C255.865728,34.5810558 255.247896,34.889972 254.740081,35.2792969 C254.232266,35.6686217 253.842947,36.1214167 253.572112,36.6376953 C253.301278,37.1539739 253.165862,37.6956352 253.165862,38.2626953 C253.165862,38.8466826 253.299162,39.3629535 253.565765,39.8115234 C253.832367,40.2600934 254.202644,40.65576 254.676604,40.9985352 C255.150565,41.3413103 255.719733,41.6332996 256.384124,41.8745117 C257.048515,42.1157239 257.78272,42.316731 258.586761,42.4775391 C259.221529,42.5960292 259.746264,42.7145176 260.160979,42.8330078 C260.575695,42.951498 260.907886,43.0805657 261.157561,43.2202148 C261.407237,43.359864 261.580738,43.5100903 261.678069,43.6708984 C261.7754,43.8317065 261.824065,44.0179026 261.824065,44.2294922 Z M272.83743,36.1552734 L272.83743,28.5 L269.308133,28.5 L269.308133,48 L272.83743,48 L272.83743,38.0849609 C273.116729,37.7040997 273.47431,37.4078787 273.910184,37.1962891 C274.346059,36.9846995 274.860214,36.8789063 275.452665,36.8789063 C275.858917,36.8789063 276.222845,36.9318029 276.544462,37.0375977 C276.866078,37.1433925 277.14114,37.306314 277.369657,37.5263672 C277.598174,37.7464204 277.77379,38.0341779 277.896512,38.3896484 C278.019234,38.745119 278.080594,39.1682918 278.080594,39.6591797 L278.080594,48 L281.609891,48 L281.609891,39.6845703 C281.609891,38.6774038 281.489287,37.8162471 281.248075,37.1010742 C281.006863,36.3859014 280.67044,35.799807 280.238798,35.3427734 C279.807155,34.8857399 279.290884,34.5493175 278.689969,34.3334961 C278.089055,34.1176747 277.428905,34.0097656 276.709501,34.0097656 C275.896997,34.0097656 275.162792,34.2001934 274.506864,34.5810547 C273.850936,34.961916 273.294464,35.4866503 272.83743,36.1552734 Z" id="Combined-Shape-Copy-4"></path>
                <path d="M76,18 L202,13 L202,47 L76,52 L76,18 Z M84.148535,38.9560547 C84.148535,38.6259749 84.2035474,38.3191746 84.313574,38.0356445 C84.4236006,37.7521145 84.5844063,37.5066742 84.7959959,37.2993164 C85.0075855,37.0919586 85.2657209,36.9269212 85.57041,36.8041992 C85.875099,36.6814773 86.217869,36.6201172 86.5987303,36.6201172 C86.9795915,36.6201172 87.3223616,36.6814773 87.6270506,36.8041992 C87.9317396,36.9269212 88.1877592,37.0919586 88.395117,37.2993164 C88.6024748,37.5066742 88.7632805,37.7521145 88.8775389,38.0356445 C88.9917972,38.3191746 89.0489256,38.6259749 89.0489256,38.9560547 C89.0489256,39.2776709 88.9917972,39.5781236 88.8775389,39.8574219 C88.7632805,40.1367201 88.6024748,40.3800445 88.395117,40.5874023 C88.1877592,40.7947602 87.9317396,40.9576817 87.6270506,41.0761719 C87.3223616,41.1946621 86.9795915,41.2539063 86.5987303,41.2539063 C86.217869,41.2539063 85.875099,41.1946621 85.57041,41.0761719 C85.2657209,40.9576817 85.0075855,40.7947602 84.7959959,40.5874023 C84.5844063,40.3800445 84.4236006,40.1367201 84.313574,39.8574219 C84.2035474,39.5781236 84.148535,39.2776709 84.148535,38.9560547 Z M103.007603,38.4355469 C103.35461,38.4355469 103.684685,38.3847661 103.997837,38.2832031 C104.31099,38.1816401 104.586052,38.0377613 104.823033,37.8515625 C105.060013,37.6653637 105.244093,37.441082 105.375279,37.1787109 C105.506464,36.9163398 105.563593,36.6243506 105.546666,36.3027344 L108.872837,36.3027344 C108.889765,37.0136754 108.74377,37.6738251 108.434849,38.2832031 C108.125928,38.8925812 107.704871,39.4173155 107.171666,39.8574219 C106.63846,40.2975282 106.018512,40.6424141 105.311802,40.8920898 C104.605093,41.1417656 103.858193,41.2666016 103.07108,41.2666016 C102.004668,41.2666016 101.069456,41.0867531 100.265416,40.7270508 C99.4613751,40.3673485 98.7906461,39.8743521 98.2532086,39.2480469 C97.715771,38.6217417 97.309525,37.8875368 97.0344586,37.0454102 C96.7593921,36.2032835 96.6218609,35.2998095 96.6218609,34.3349609 L96.6218609,33.9541016 C96.6218609,32.989253 96.7572762,32.085779 97.0281109,31.2436523 C97.2989456,30.4015257 97.7051915,29.6673208 98.2468609,29.0410156 C98.7885303,28.4147104 99.4592593,27.9195982 100.259068,27.5556641 C101.058877,27.19173 101.987741,27.0097656 103.045689,27.0097656 C103.892047,27.0097656 104.674917,27.1367175 105.394322,27.390625 C106.113726,27.6445325 106.733675,28.0021136 107.254185,28.4633789 C107.774696,28.9246442 108.178826,29.4832324 108.466587,30.1391602 C108.754349,30.7950879 108.889765,31.5292928 108.872837,32.3417969 L105.546666,32.3417969 C105.563593,32.0032535 105.512812,31.6816421 105.394322,31.3769531 C105.275832,31.0722641 105.102331,30.8098969 104.873814,30.5898438 C104.645297,30.3697906 104.370235,30.1941738 104.048619,30.0629883 C103.727003,29.9318027 103.375769,29.8662109 102.994908,29.8662109 C102.436311,29.8662109 101.975053,29.9804676 101.611119,30.2089844 C101.247185,30.4375011 100.957311,30.7421856 100.74149,31.1230469 C100.525668,31.5039082 100.373326,31.9397762 100.284459,32.4306641 C100.195591,32.9215519 100.151158,33.4293594 100.151158,33.9541016 L100.151158,34.3349609 C100.151158,34.8681667 100.193475,35.3823217 100.278111,35.8774414 C100.362747,36.3725611 100.512973,36.8084291 100.728794,37.1850586 C100.944616,37.5616881 101.236605,37.8642567 101.604771,38.0927734 C101.972937,38.3212902 102.440543,38.4355469 103.007603,38.4355469 Z M112.789523,34.0048828 C112.789523,33.0061799 112.933402,32.0815472 113.221163,31.230957 C113.508925,30.3803668 113.929982,29.6419302 114.484347,29.015625 C115.038712,28.3893198 115.715788,27.8984393 116.515597,27.5429688 C117.315406,27.1874982 118.231575,27.0097656 119.264132,27.0097656 C120.296689,27.0097656 121.214975,27.1874982 122.019015,27.5429688 C122.823055,27.8984393 123.502248,28.3893198 124.056613,29.015625 C124.610977,29.6419302 125.032034,30.3803668 125.319796,31.230957 C125.607558,32.0815472 125.751437,33.0061799 125.751437,34.0048828 L125.751437,34.2714844 C125.751437,35.2786509 125.607558,36.2075153 125.319796,37.0581055 C125.032034,37.9086957 124.613093,38.6471323 124.06296,39.2734375 C123.512827,39.8997427 122.835751,40.3885074 122.03171,40.7397461 C121.22767,41.0909848 120.313616,41.2666016 119.289523,41.2666016 C118.256966,41.2666016 117.336565,41.0909848 116.528292,40.7397461 C115.72002,40.3885074 115.038712,39.8997427 114.484347,39.2734375 C113.929982,38.6471323 113.508925,37.9086957 113.221163,37.0581055 C112.933402,36.2075153 112.789523,35.2786509 112.789523,34.2714844 Z M116.31882,34.2714844 C116.31882,34.8470081 116.373832,35.3865535 116.483859,35.8901367 C116.593885,36.39372 116.767386,36.8338197 117.004367,37.2104492 C117.241347,37.5870787 117.548147,37.8854156 117.924777,38.1054688 C118.301406,38.3255219 118.756317,38.4355469 119.289523,38.4355469 C119.805801,38.4355469 120.250133,38.3255219 120.622531,38.1054688 C120.994928,37.8854156 121.297497,37.5870787 121.530245,37.2104492 C121.762994,36.8338197 121.934379,36.39372 122.044406,35.8901367 C122.154432,35.3865535 122.209445,34.8470081 122.209445,34.2714844 L122.209445,34.0048828 C122.209445,33.4462863 122.154432,32.9173202 122.044406,32.4179688 C121.934379,31.9186173 121.762994,31.4785175 121.530245,31.0976563 C121.297497,30.716795 120.994928,30.4163422 120.622531,30.1962891 C120.250133,29.9762359 119.797338,29.8662109 119.264132,29.8662109 C118.73939,29.8662109 118.290827,29.9762359 117.918429,30.1962891 C117.546031,30.4163422 117.241347,30.716795 117.004367,31.0976563 C116.767386,31.4785175 116.593885,31.9186173 116.483859,32.4179688 C116.373832,32.9173202 116.31882,33.4462863 116.31882,34.0048828 Z M131.81363,27.2636719 L131.915192,28.9267578 C132.177564,28.3343069 132.539376,27.8667009 133.000642,27.5239258 C133.461907,27.1811506 134.022611,27.0097656 134.682771,27.0097656 C135.7915,27.0097656 136.515126,27.4964144 136.853669,28.4697266 C137.124504,28.012693 137.46939,27.655112 137.888337,27.3969727 C138.307284,27.1388333 138.812976,27.0097656 139.405427,27.0097656 C139.820142,27.0097656 140.207346,27.0859367 140.567048,27.2382813 C140.92675,27.3906258 141.239898,27.6339502 141.506501,27.9682617 C141.773104,28.3025733 141.980459,28.7342096 142.128571,29.2631836 C142.276684,29.7921576 142.350739,30.4374962 142.350739,31.1992188 L142.350739,41 L139.138825,41 L139.138825,31.1865234 C139.138825,30.9241523 139.111319,30.7083342 139.056306,30.5390625 C139.001292,30.3697908 138.927237,30.2364914 138.834138,30.1391602 C138.741038,30.0418289 138.633129,29.9741213 138.510407,29.9360352 C138.387685,29.897949 138.262849,29.8789063 138.135896,29.8789063 C137.890452,29.8789063 137.683097,29.9360346 137.513825,30.050293 C137.344554,30.1645514 137.21337,30.3190094 137.120271,30.5136719 L137.120271,41 L134.009919,41 L134.009919,31.1738281 C134.009919,30.911457 133.984529,30.6956389 133.933747,30.5263672 C133.882966,30.3570955 133.813142,30.2259119 133.724275,30.1328125 C133.635407,30.0397131 133.53173,29.9741213 133.413239,29.9360352 C133.294749,29.897949 133.167797,29.8789063 133.03238,29.8789063 C132.761545,29.8789063 132.543611,29.9550774 132.378571,30.1074219 C132.213532,30.2597664 132.084464,30.4628894 131.991364,30.7167969 L131.991364,41 L128.77945,41 L128.77945,27.2636719 Z M148.159026,27.2636719 L148.260589,28.9267578 C148.52296,28.3343069 148.884773,27.8667009 149.346038,27.5239258 C149.807303,27.1811506 150.368007,27.0097656 151.028167,27.0097656 C152.136896,27.0097656 152.860522,27.4964144 153.199065,28.4697266 C153.4699,28.012693 153.814786,27.655112 154.233733,27.3969727 C154.652681,27.1388333 155.158372,27.0097656 155.750823,27.0097656 C156.165539,27.0097656 156.552742,27.0859367 156.912444,27.2382813 C157.272147,27.3906258 157.585294,27.6339502 157.851897,27.9682617 C158.1185,28.3025733 158.325855,28.7342096 158.473968,29.2631836 C158.62208,29.7921576 158.696136,30.4374962 158.696136,31.1992188 L158.696136,41 L155.484222,41 L155.484222,31.1865234 C155.484222,30.9241523 155.456715,30.7083342 155.401702,30.5390625 C155.346689,30.3697908 155.272633,30.2364914 155.179534,30.1391602 C155.086435,30.0418289 154.978526,29.9741213 154.855804,29.9360352 C154.733082,29.897949 154.608246,29.8789063 154.481292,29.8789063 C154.235848,29.8789063 154.028493,29.9360346 153.859222,30.050293 C153.68995,30.1645514 153.558766,30.3190094 153.465667,30.5136719 L153.465667,41 L150.355315,41 L150.355315,31.1738281 C150.355315,30.911457 150.329925,30.6956389 150.279143,30.5263672 C150.228362,30.3570955 150.158538,30.2259119 150.069671,30.1328125 C149.980803,30.0397131 149.877126,29.9741213 149.758636,29.9360352 C149.640145,29.897949 149.513194,29.8789063 149.377776,29.8789063 C149.106942,29.8789063 148.889008,29.9550774 148.723968,30.1074219 C148.558928,30.2597664 148.42986,30.4628894 148.336761,30.7167969 L148.336761,41 L145.124847,41 L145.124847,27.2636719 Z M163.247587,27.2636719 L170.725126,27.2636719 L170.725126,38.1308594 L174.444852,38.1308594 L174.444852,41 L163.247587,41 L163.247587,38.1308594 L167.157743,38.1308594 L167.157743,30.1455078 L163.247587,30.1455078 Z M166.903837,23.7470703 C166.903837,23.4762356 166.952501,23.2244478 167.049833,22.9916992 C167.147164,22.7589507 167.284695,22.5600594 167.46243,22.3950195 C167.640166,22.2299796 167.853868,22.1009119 168.103544,22.0078125 C168.353219,21.9147131 168.630398,21.8681641 168.935087,21.8681641 C169.561392,21.8681641 170.05862,22.0437808 170.426786,22.3950195 C170.794952,22.7462583 170.979032,23.1969374 170.979032,23.7470703 C170.979032,24.2972033 170.794952,24.7478824 170.426786,25.0991211 C170.05862,25.4503598 169.561392,25.6259766 168.935087,25.6259766 C168.630398,25.6259766 168.353219,25.5794275 168.103544,25.4863281 C167.853868,25.3932287 167.640166,25.264161 167.46243,25.0991211 C167.284695,24.9340812 167.147164,24.73519 167.049833,24.5024414 C166.952501,24.2696928 166.903837,24.017905 166.903837,23.7470703 Z M185.128139,23.8994141 L185.128139,27.2636719 L190.257045,27.2636719 L190.257045,29.8662109 L185.128139,29.8662109 L185.128139,35.7695313 C185.128139,36.2688827 185.185267,36.685708 185.299526,37.0200195 C185.413784,37.3543311 185.576706,37.62093 185.788295,37.8198242 C185.999885,38.0187184 186.255905,38.1604813 186.556362,38.2451172 C186.856819,38.329753 187.193241,38.3720703 187.565639,38.3720703 C187.836474,38.3720703 188.113652,38.3593751 188.397182,38.3339844 C188.680712,38.3085936 188.951543,38.2768557 189.209682,38.2387695 C189.467821,38.2006834 189.70903,38.160482 189.933315,38.1181641 C190.1576,38.0758461 190.350143,38.0335289 190.510952,37.9912109 L190.853725,40.4160156 C190.608281,40.5598966 190.320524,40.6847325 189.990444,40.7905273 C189.660364,40.8963221 189.309131,40.9830726 188.936733,41.0507813 C188.564335,41.1184899 188.177132,41.1713865 187.775112,41.2094727 C187.373092,41.2475588 186.977425,41.2666016 186.5881,41.2666016 C185.834841,41.2666016 185.151417,41.1671559 184.537807,40.9682617 C183.924197,40.7693675 183.399463,40.4604513 182.963588,40.0415039 C182.527714,39.6225565 182.191291,39.0893587 181.954311,38.4418945 C181.717331,37.7944304 181.598842,37.0179082 181.598842,36.1123047 L181.598842,29.8662109 L178.4631,29.8662109 L178.4631,27.2636719 L181.598842,27.2636719 L181.598842,23.8994141 Z" id="Combined-Shape-Copy-3"></path>
            </g>
        </g>
    </g>
</svg>